# xmcd
# 
# Track frame offsets:
#   300
#   19127
#   34625
#   45485
#   64260
#   82897
#   98525
#   113515
#   130307
#   153117
#   167355
#   189445
#   203172
#   220630
# 
# Disc length: 3112 seconds
# 
# Revision: 1
# Processed by: cddbd v1.5.1PL2 Copyright (c) Steve Scherf et al.
# Submitted via: Synapstar 1.0 
# 
DISCID=a30c240e
DTITLE=Various Artist - SD011 - Country Hits Today
DYEAR=1900
DGENRE=Country
TTITLE0=Vince Gill - Which Bridge To Cross
TTITLE1=George Strait - You Can't Make A Heart Love Somebody
TTITLE2=Tracy Byrd - The First Step
TTITLE3=John Anderson - Bend It Till It Breaks
TTITLE4=Travis Tritt - Between An Old Memory And Me
TTITLE5=Randy Travis - The Box
TTITLE6=Rhett Atkins - I Brake For Brunettes
TTITLE7=George Ducas - Lipstick Promises
TTITLE8=The Mavericks - I Should Have Been True
TTITLE9=David Ball - Look What Followed Me Home
TTITLE10=Larry Stewart - Losing Your Love
TTITLE11=Ricky Van Shelton - Lola's Love
TTITLE12=Diamond Rio, Wariner and Parnell - Workin' Man's Blues
TTITLE13=Doug Supernaw - What'll You Do About Me
EXTD=MediaType: Karaoke CD+G Producer: StarDisc
EXTT0=
EXTT1=
EXTT2=
EXTT3=
EXTT4=
EXTT5=
EXTT6=
EXTT7=
EXTT8=
EXTT9=
EXTT10=
EXTT11=
EXTT12=
EXTT13=
PLAYORDER=
